<?xml version="1.0" encoding="UTF-8"?>
<svg xmlns="http://www.w3.org/2000/svg" viewBox="0 0 800 160" role="img" aria-labelledby="atom-lk-title atom-lk-desc" width="800" height="160">
  <title id="atom-lk-title">ATOM lockup</title>
  <desc id="atom-lk-desc">Horizontal ATOM lockup: orbital icon paired with the canonical ΔTOM wordmark. Δ, T, M are stroked in light cream; the O is a teal ring at the same cap height.</desc>
  <defs>
    <radialGradient id="lk-nucleus" cx="50%" cy="50%" r="50%">
      <stop offset="0%" stop-color="#ffffff" stop-opacity="1"/>
      <stop offset="45%" stop-color="#ffffff" stop-opacity="0.85"/>
      <stop offset="100%" stop-color="#00c8c8" stop-opacity="0"/>
    </radialGradient>
  </defs>
  <!-- Orbital icon -->
  <g transform="translate(8 32)">
    <g fill="none" stroke="#00c8c8" stroke-width="2">
      <ellipse cx="48" cy="48" rx="40" ry="15"/>
      <ellipse cx="48" cy="48" rx="40" ry="15" transform="rotate(60 48 48)"/>
      <ellipse cx="48" cy="48" rx="40" ry="15" transform="rotate(120 48 48)"/>
    </g>
    <circle cx="48" cy="48" r="9" fill="url(#lk-nucleus)"/>
    <circle cx="48" cy="48" r="3.6" fill="#ffffff"/>
  </g>
  <!-- Wordmark — geometric strokes -->
  <g transform="translate(140 0)" fill="none" stroke-linecap="square" stroke-linejoin="miter">
    <polygon points="70,130 10,130 40,30" stroke="#e8e8ea" stroke-width="14"/>
    <line x1="100" y1="37" x2="220" y2="37" stroke="#e8e8ea" stroke-width="14"/>
    <line x1="160" y1="37" x2="160" y2="130" stroke="#e8e8ea" stroke-width="14"/>
    <circle cx="320" cy="83" r="50" stroke="#00c8c8" stroke-width="14"/>
    <polyline points="410,130 410,37 470,110 530,37 530,130" stroke="#e8e8ea" stroke-width="14"/>
  </g>
</svg>
