<?xml version="1.0" encoding="UTF-8"?>
<svg xmlns="http://www.w3.org/2000/svg" viewBox="0 0 860 180" role="img" aria-labelledby="atom-lk-title atom-lk-desc" width="860" height="180">
  <title id="atom-lk-title">ATOM lockup</title>
  <desc id="atom-lk-desc">Horizontal ATOM lockup: orbital icon paired with the canonical ΔTOM wordmark. Δ, T, M are heavy geometric outline glyphs in light cream; the O is a teal ring at the same cap height and stroke weight.</desc>
  <defs>
    <radialGradient id="lk-nucleus" cx="50%" cy="50%" r="50%">
      <stop offset="0%" stop-color="#ffffff" stop-opacity="1"/>
      <stop offset="45%" stop-color="#ffffff" stop-opacity="0.85"/>
      <stop offset="100%" stop-color="#00c8c8" stop-opacity="0"/>
    </radialGradient>
  </defs>
  <!-- Orbital icon -->
  <g transform="translate(8 42)">
    <g fill="none" stroke="#00c8c8" stroke-width="2">
      <ellipse cx="48" cy="48" rx="40" ry="15"/>
      <ellipse cx="48" cy="48" rx="40" ry="15" transform="rotate(60 48 48)"/>
      <ellipse cx="48" cy="48" rx="40" ry="15" transform="rotate(120 48 48)"/>
    </g>
    <circle cx="48" cy="48" r="9" fill="url(#lk-nucleus)"/>
    <circle cx="48" cy="48" r="3.6" fill="#ffffff"/>
  </g>
  <!-- Wordmark — heavy geometric outline strokes -->
  <g transform="translate(160 0)" fill="none" stroke-width="22" stroke-linecap="butt" stroke-linejoin="miter" stroke-miterlimit="32">
    <polygon points="80,30 11,150 149,150" stroke="#e8e8ea"/>
    <line x1="180" y1="41" x2="320" y2="41" stroke="#e8e8ea"/>
    <line x1="250" y1="41" x2="250" y2="150" stroke="#e8e8ea"/>
    <circle cx="410" cy="90" r="49" stroke="#00c8c8"/>
    <polyline points="500,150 500,30 580,150 660,30 660,150" stroke="#e8e8ea"/>
  </g>
</svg>
